<svg xmlns="http://www.w3.org/2000/svg" version="1.1" xmlns:xlink="http://www.w3.org/1999/xlink" xmlns:svgjs="http://svgjs.com/svgjs" width="1440" height="560" preserveAspectRatio="none" viewBox="0 0 1440 560"><g mask="url(&quot;#SvgjsMask1000&quot;)" fill="none"><rect width="1440" height="560" x="0" y="0" fill="#0e2a47"></rect><path d="M6.93 -7.43L71.88 30.07L71.88 105.07L6.93 142.57L-58.02 105.07L-58.02 30.07zM71.88 105.07L136.84 142.57L136.84 217.57L71.88 255.07L6.93 217.57L6.93 142.57zM71.88 555.07L136.84 592.57L136.84 667.57L71.88 705.07L6.93 667.57L6.93 592.57zM136.84 -7.43L201.79 30.07L201.79 105.07L136.84 142.57L71.88 105.07L71.88 30.07zM136.84 217.57L201.79 255.07L201.79 330.07L136.84 367.57L71.88 330.07L71.88 255.07zM201.79 330.07L266.75 367.57L266.75 442.57L201.79 480.07L136.84 442.57L136.84 367.57zM136.84 442.57L201.79 480.07L201.79 555.07L136.84 592.57L71.88 555.07L71.88 480.07zM201.79 555.07L266.75 592.57L266.75 667.57L201.79 705.07L136.84 667.57L136.84 592.57zM266.75 -7.43L331.7 30.07L331.7 105.07L266.75 142.57L201.79 105.07L201.79 30.07zM266.75 442.57L331.7 480.07L331.7 555.07L266.75 592.57L201.79 555.07L201.79 480.07zM396.65 -7.43L461.61 30.07L461.61 105.07L396.65 142.57L331.7 105.07L331.7 30.07zM396.65 217.57L461.61 255.07L461.61 330.07L396.65 367.57L331.7 330.07L331.7 255.07zM396.65 442.57L461.61 480.07L461.61 555.07L396.65 592.57L331.7 555.07L331.7 480.07zM591.51 105.07L656.47 142.57L656.47 217.57L591.51 255.07L526.56 217.57L526.56 142.57zM526.56 217.57L591.51 255.07L591.51 330.07L526.56 367.57L461.61 330.07L461.61 255.07zM591.51 555.07L656.47 592.57L656.47 667.57L591.51 705.07L526.56 667.57L526.56 592.57zM656.47 -7.43L721.42 30.07L721.42 105.07L656.47 142.57L591.51 105.07L591.51 30.07zM721.42 105.07L786.38 142.57L786.38 217.57L721.42 255.07L656.47 217.57L656.47 142.57zM656.47 442.57L721.42 480.07L721.42 555.07L656.47 592.57L591.51 555.07L591.51 480.07zM786.37 -7.43L851.33 30.07L851.33 105.07L786.37 142.57L721.42 105.07L721.42 30.07zM786.37 442.57L851.33 480.07L851.33 555.07L786.37 592.57L721.42 555.07L721.42 480.07zM916.28 -7.43L981.24 30.07L981.24 105.07L916.28 142.57L851.33 105.07L851.33 30.07zM916.28 442.57L981.24 480.07L981.24 555.07L916.28 592.57L851.33 555.07L851.33 480.07zM981.24 555.07L1046.19 592.57L1046.19 667.57L981.24 705.07L916.28 667.57L916.28 592.57zM1046.19 217.57L1111.14 255.07L1111.14 330.07L1046.19 367.57L981.24 330.07L981.24 255.07zM1046.19 442.57L1111.14 480.07L1111.14 555.07L1046.19 592.57L981.24 555.07L981.24 480.07zM1111.14 555.07L1176.1 592.57L1176.1 667.57L1111.14 705.07L1046.19 667.57L1046.19 592.57zM1241.05 105.07L1306 142.57L1306 217.57L1241.05 255.07L1176.1 217.57L1176.1 142.57zM1176.1 442.57L1241.05 480.07L1241.05 555.07L1176.1 592.57L1111.14 555.07L1111.14 480.07zM1306.01 -7.43L1370.96 30.07L1370.96 105.07L1306.01 142.57L1241.05 105.07L1241.05 30.07zM1370.96 105.07L1435.91 142.57L1435.91 217.57L1370.96 255.07L1306.01 217.57L1306.01 142.57zM1500.87 105.07L1565.82 142.57L1565.82 217.57L1500.87 255.07L1435.91 217.57L1435.91 142.57zM1435.91 217.57L1500.87 255.07L1500.87 330.07L1435.91 367.57L1370.96 330.07L1370.96 255.07zM1435.91 442.57L1500.87 480.07L1500.87 555.07L1435.91 592.57L1370.96 555.07L1370.96 480.07z" stroke="#03305d" stroke-width="2"></path><path d="M-0.57 -7.43 a7.5 7.5 0 1 0 15 0 a7.5 7.5 0 1 0 -15 0zM64.38 30.07 a7.5 7.5 0 1 0 15 0 a7.5 7.5 0 1 0 -15 0zM64.38 105.07 a7.5 7.5 0 1 0 15 0 a7.5 7.5 0 1 0 -15 0zM-0.57 142.57 a7.5 7.5 0 1 0 15 0 a7.5 7.5 0 1 0 -15 0zM-65.52 105.07 a7.5 7.5 0 1 0 15 0 a7.5 7.5 0 1 0 -15 0zM-65.52 30.07 a7.5 7.5 0 1 0 15 0 a7.5 7.5 0 1 0 -15 0zM129.34 142.57 a7.5 7.5 0 1 0 15 0 a7.5 7.5 0 1 0 -15 0zM129.34 217.57 a7.5 7.5 0 1 0 15 0 a7.5 7.5 0 1 0 -15 0zM64.38 255.07 a7.5 7.5 0 1 0 15 0 a7.5 7.5 0 1 0 -15 0zM-0.57 217.57 a7.5 7.5 0 1 0 15 0 a7.5 7.5 0 1 0 -15 0zM64.38 555.07 a7.5 7.5 0 1 0 15 0 a7.5 7.5 0 1 0 -15 0zM129.34 592.57 a7.5 7.5 0 1 0 15 0 a7.5 7.5 0 1 0 -15 0zM129.34 667.57 a7.5 7.5 0 1 0 15 0 a7.5 7.5 0 1 0 -15 0zM64.38 705.07 a7.5 7.5 0 1 0 15 0 a7.5 7.5 0 1 0 -15 0zM-0.57 667.57 a7.5 7.5 0 1 0 15 0 a7.5 7.5 0 1 0 -15 0zM-0.57 592.57 a7.5 7.5 0 1 0 15 0 a7.5 7.5 0 1 0 -15 0zM129.34 -7.43 a7.5 7.5 0 1 0 15 0 a7.5 7.5 0 1 0 -15 0zM194.29 30.07 a7.5 7.5 0 1 0 15 0 a7.5 7.5 0 1 0 -15 0zM194.29 105.07 a7.5 7.5 0 1 0 15 0 a7.5 7.5 0 1 0 -15 0zM194.29 255.07 a7.5 7.5 0 1 0 15 0 a7.5 7.5 0 1 0 -15 0zM194.29 330.07 a7.5 7.5 0 1 0 15 0 a7.5 7.5 0 1 0 -15 0zM129.34 367.57 a7.5 7.5 0 1 0 15 0 a7.5 7.5 0 1 0 -15 0zM64.38 330.07 a7.5 7.5 0 1 0 15 0 a7.5 7.5 0 1 0 -15 0zM259.25 367.57 a7.5 7.5 0 1 0 15 0 a7.5 7.5 0 1 0 -15 0zM259.25 442.57 a7.5 7.5 0 1 0 15 0 a7.5 7.5 0 1 0 -15 0zM194.29 480.07 a7.5 7.5 0 1 0 15 0 a7.5 7.5 0 1 0 -15 0zM129.34 442.57 a7.5 7.5 0 1 0 15 0 a7.5 7.5 0 1 0 -15 0zM194.29 555.07 a7.5 7.5 0 1 0 15 0 a7.5 7.5 0 1 0 -15 0zM64.38 480.07 a7.5 7.5 0 1 0 15 0 a7.5 7.5 0 1 0 -15 0zM259.25 592.57 a7.5 7.5 0 1 0 15 0 a7.5 7.5 0 1 0 -15 0zM259.25 667.57 a7.5 7.5 0 1 0 15 0 a7.5 7.5 0 1 0 -15 0zM194.29 705.07 a7.5 7.5 0 1 0 15 0 a7.5 7.5 0 1 0 -15 0zM259.25 -7.43 a7.5 7.5 0 1 0 15 0 a7.5 7.5 0 1 0 -15 0zM324.2 30.07 a7.5 7.5 0 1 0 15 0 a7.5 7.5 0 1 0 -15 0zM324.2 105.07 a7.5 7.5 0 1 0 15 0 a7.5 7.5 0 1 0 -15 0zM259.25 142.57 a7.5 7.5 0 1 0 15 0 a7.5 7.5 0 1 0 -15 0zM324.2 480.07 a7.5 7.5 0 1 0 15 0 a7.5 7.5 0 1 0 -15 0zM324.2 555.07 a7.5 7.5 0 1 0 15 0 a7.5 7.5 0 1 0 -15 0zM389.15 -7.43 a7.5 7.5 0 1 0 15 0 a7.5 7.5 0 1 0 -15 0zM454.11 30.07 a7.5 7.5 0 1 0 15 0 a7.5 7.5 0 1 0 -15 0zM454.11 105.07 a7.5 7.5 0 1 0 15 0 a7.5 7.5 0 1 0 -15 0zM389.15 142.57 a7.5 7.5 0 1 0 15 0 a7.5 7.5 0 1 0 -15 0zM389.15 217.57 a7.5 7.5 0 1 0 15 0 a7.5 7.5 0 1 0 -15 0zM454.11 255.07 a7.5 7.5 0 1 0 15 0 a7.5 7.5 0 1 0 -15 0zM454.11 330.07 a7.5 7.5 0 1 0 15 0 a7.5 7.5 0 1 0 -15 0zM389.15 367.57 a7.5 7.5 0 1 0 15 0 a7.5 7.5 0 1 0 -15 0zM324.2 330.07 a7.5 7.5 0 1 0 15 0 a7.5 7.5 0 1 0 -15 0zM324.2 255.07 a7.5 7.5 0 1 0 15 0 a7.5 7.5 0 1 0 -15 0zM389.15 442.57 a7.5 7.5 0 1 0 15 0 a7.5 7.5 0 1 0 -15 0zM454.11 480.07 a7.5 7.5 0 1 0 15 0 a7.5 7.5 0 1 0 -15 0zM454.11 555.07 a7.5 7.5 0 1 0 15 0 a7.5 7.5 0 1 0 -15 0zM389.15 592.57 a7.5 7.5 0 1 0 15 0 a7.5 7.5 0 1 0 -15 0zM584.01 105.07 a7.5 7.5 0 1 0 15 0 a7.5 7.5 0 1 0 -15 0zM648.97 142.57 a7.5 7.5 0 1 0 15 0 a7.5 7.5 0 1 0 -15 0zM648.97 217.57 a7.5 7.5 0 1 0 15 0 a7.5 7.5 0 1 0 -15 0zM584.01 255.07 a7.5 7.5 0 1 0 15 0 a7.5 7.5 0 1 0 -15 0zM519.06 217.57 a7.5 7.5 0 1 0 15 0 a7.5 7.5 0 1 0 -15 0zM519.06 142.57 a7.5 7.5 0 1 0 15 0 a7.5 7.5 0 1 0 -15 0zM584.01 330.07 a7.5 7.5 0 1 0 15 0 a7.5 7.5 0 1 0 -15 0zM519.06 367.57 a7.5 7.5 0 1 0 15 0 a7.5 7.5 0 1 0 -15 0zM584.01 555.07 a7.5 7.5 0 1 0 15 0 a7.5 7.5 0 1 0 -15 0zM648.97 592.57 a7.5 7.5 0 1 0 15 0 a7.5 7.5 0 1 0 -15 0zM648.97 667.57 a7.5 7.5 0 1 0 15 0 a7.5 7.5 0 1 0 -15 0zM584.01 705.07 a7.5 7.5 0 1 0 15 0 a7.5 7.5 0 1 0 -15 0zM519.06 667.57 a7.5 7.5 0 1 0 15 0 a7.5 7.5 0 1 0 -15 0zM519.06 592.57 a7.5 7.5 0 1 0 15 0 a7.5 7.5 0 1 0 -15 0zM648.97 -7.43 a7.5 7.5 0 1 0 15 0 a7.5 7.5 0 1 0 -15 0zM713.92 30.07 a7.5 7.5 0 1 0 15 0 a7.5 7.5 0 1 0 -15 0zM713.92 105.07 a7.5 7.5 0 1 0 15 0 a7.5 7.5 0 1 0 -15 0zM584.01 30.07 a7.5 7.5 0 1 0 15 0 a7.5 7.5 0 1 0 -15 0zM778.88 142.57 a7.5 7.5 0 1 0 15 0 a7.5 7.5 0 1 0 -15 0zM778.88 217.57 a7.5 7.5 0 1 0 15 0 a7.5 7.5 0 1 0 -15 0zM713.92 255.07 a7.5 7.5 0 1 0 15 0 a7.5 7.5 0 1 0 -15 0zM648.97 442.57 a7.5 7.5 0 1 0 15 0 a7.5 7.5 0 1 0 -15 0zM713.92 480.07 a7.5 7.5 0 1 0 15 0 a7.5 7.5 0 1 0 -15 0zM713.92 555.07 a7.5 7.5 0 1 0 15 0 a7.5 7.5 0 1 0 -15 0zM584.01 480.07 a7.5 7.5 0 1 0 15 0 a7.5 7.5 0 1 0 -15 0zM778.87 -7.43 a7.5 7.5 0 1 0 15 0 a7.5 7.5 0 1 0 -15 0zM843.83 30.07 a7.5 7.5 0 1 0 15 0 a7.5 7.5 0 1 0 -15 0zM843.83 105.07 a7.5 7.5 0 1 0 15 0 a7.5 7.5 0 1 0 -15 0zM778.87 142.57 a7.5 7.5 0 1 0 15 0 a7.5 7.5 0 1 0 -15 0zM778.87 442.57 a7.5 7.5 0 1 0 15 0 a7.5 7.5 0 1 0 -15 0zM843.83 480.07 a7.5 7.5 0 1 0 15 0 a7.5 7.5 0 1 0 -15 0zM843.83 555.07 a7.5 7.5 0 1 0 15 0 a7.5 7.5 0 1 0 -15 0zM778.87 592.57 a7.5 7.5 0 1 0 15 0 a7.5 7.5 0 1 0 -15 0zM908.78 -7.43 a7.5 7.5 0 1 0 15 0 a7.5 7.5 0 1 0 -15 0zM973.74 30.07 a7.5 7.5 0 1 0 15 0 a7.5 7.5 0 1 0 -15 0zM973.74 105.07 a7.5 7.5 0 1 0 15 0 a7.5 7.5 0 1 0 -15 0zM908.78 142.57 a7.5 7.5 0 1 0 15 0 a7.5 7.5 0 1 0 -15 0zM908.78 442.57 a7.5 7.5 0 1 0 15 0 a7.5 7.5 0 1 0 -15 0zM973.74 480.07 a7.5 7.5 0 1 0 15 0 a7.5 7.5 0 1 0 -15 0zM973.74 555.07 a7.5 7.5 0 1 0 15 0 a7.5 7.5 0 1 0 -15 0zM908.78 592.57 a7.5 7.5 0 1 0 15 0 a7.5 7.5 0 1 0 -15 0zM1038.69 592.57 a7.5 7.5 0 1 0 15 0 a7.5 7.5 0 1 0 -15 0zM1038.69 667.57 a7.5 7.5 0 1 0 15 0 a7.5 7.5 0 1 0 -15 0zM973.74 705.07 a7.5 7.5 0 1 0 15 0 a7.5 7.5 0 1 0 -15 0zM908.78 667.57 a7.5 7.5 0 1 0 15 0 a7.5 7.5 0 1 0 -15 0zM1038.69 217.57 a7.5 7.5 0 1 0 15 0 a7.5 7.5 0 1 0 -15 0zM1103.64 255.07 a7.5 7.5 0 1 0 15 0 a7.5 7.5 0 1 0 -15 0zM1103.64 330.07 a7.5 7.5 0 1 0 15 0 a7.5 7.5 0 1 0 -15 0zM1038.69 367.57 a7.5 7.5 0 1 0 15 0 a7.5 7.5 0 1 0 -15 0zM973.74 330.07 a7.5 7.5 0 1 0 15 0 a7.5 7.5 0 1 0 -15 0zM973.74 255.07 a7.5 7.5 0 1 0 15 0 a7.5 7.5 0 1 0 -15 0zM1038.69 442.57 a7.5 7.5 0 1 0 15 0 a7.5 7.5 0 1 0 -15 0zM1103.64 480.07 a7.5 7.5 0 1 0 15 0 a7.5 7.5 0 1 0 -15 0zM1103.64 555.07 a7.5 7.5 0 1 0 15 0 a7.5 7.5 0 1 0 -15 0zM1168.6 592.57 a7.5 7.5 0 1 0 15 0 a7.5 7.5 0 1 0 -15 0zM1168.6 667.57 a7.5 7.5 0 1 0 15 0 a7.5 7.5 0 1 0 -15 0zM1103.64 705.07 a7.5 7.5 0 1 0 15 0 a7.5 7.5 0 1 0 -15 0zM1233.55 105.07 a7.5 7.5 0 1 0 15 0 a7.5 7.5 0 1 0 -15 0zM1298.5 142.57 a7.5 7.5 0 1 0 15 0 a7.5 7.5 0 1 0 -15 0zM1298.5 217.57 a7.5 7.5 0 1 0 15 0 a7.5 7.5 0 1 0 -15 0zM1233.55 255.07 a7.5 7.5 0 1 0 15 0 a7.5 7.5 0 1 0 -15 0zM1168.6 217.57 a7.5 7.5 0 1 0 15 0 a7.5 7.5 0 1 0 -15 0zM1168.6 142.57 a7.5 7.5 0 1 0 15 0 a7.5 7.5 0 1 0 -15 0zM1168.6 442.57 a7.5 7.5 0 1 0 15 0 a7.5 7.5 0 1 0 -15 0zM1233.55 480.07 a7.5 7.5 0 1 0 15 0 a7.5 7.5 0 1 0 -15 0zM1233.55 555.07 a7.5 7.5 0 1 0 15 0 a7.5 7.5 0 1 0 -15 0zM1298.51 -7.43 a7.5 7.5 0 1 0 15 0 a7.5 7.5 0 1 0 -15 0zM1363.46 30.07 a7.5 7.5 0 1 0 15 0 a7.5 7.5 0 1 0 -15 0zM1363.46 105.07 a7.5 7.5 0 1 0 15 0 a7.5 7.5 0 1 0 -15 0zM1298.51 142.57 a7.5 7.5 0 1 0 15 0 a7.5 7.5 0 1 0 -15 0zM1233.55 30.07 a7.5 7.5 0 1 0 15 0 a7.5 7.5 0 1 0 -15 0zM1428.41 142.57 a7.5 7.5 0 1 0 15 0 a7.5 7.5 0 1 0 -15 0zM1428.41 217.57 a7.5 7.5 0 1 0 15 0 a7.5 7.5 0 1 0 -15 0zM1363.46 255.07 a7.5 7.5 0 1 0 15 0 a7.5 7.5 0 1 0 -15 0zM1298.51 217.57 a7.5 7.5 0 1 0 15 0 a7.5 7.5 0 1 0 -15 0zM1493.37 105.07 a7.5 7.5 0 1 0 15 0 a7.5 7.5 0 1 0 -15 0zM1558.32 142.57 a7.5 7.5 0 1 0 15 0 a7.5 7.5 0 1 0 -15 0zM1558.32 217.57 a7.5 7.5 0 1 0 15 0 a7.5 7.5 0 1 0 -15 0zM1493.37 255.07 a7.5 7.5 0 1 0 15 0 a7.5 7.5 0 1 0 -15 0zM1493.37 330.07 a7.5 7.5 0 1 0 15 0 a7.5 7.5 0 1 0 -15 0zM1428.41 367.57 a7.5 7.5 0 1 0 15 0 a7.5 7.5 0 1 0 -15 0zM1363.46 330.07 a7.5 7.5 0 1 0 15 0 a7.5 7.5 0 1 0 -15 0zM1428.41 442.57 a7.5 7.5 0 1 0 15 0 a7.5 7.5 0 1 0 -15 0zM1493.37 480.07 a7.5 7.5 0 1 0 15 0 a7.5 7.5 0 1 0 -15 0zM1493.37 555.07 a7.5 7.5 0 1 0 15 0 a7.5 7.5 0 1 0 -15 0zM1428.41 592.57 a7.5 7.5 0 1 0 15 0 a7.5 7.5 0 1 0 -15 0zM1363.46 555.07 a7.5 7.5 0 1 0 15 0 a7.5 7.5 0 1 0 -15 0zM1363.46 480.07 a7.5 7.5 0 1 0 15 0 a7.5 7.5 0 1 0 -15 0z" fill="#03305d"></path><path d="M52.29 221.89L95.59 246.89L95.59 296.89L52.29 321.89L8.99 296.89L8.99 246.89zM8.99 446.89L52.29 471.89L52.29 521.89L8.99 546.89L-34.31 521.89L-34.31 471.89zM52.29 521.89L95.59 546.89L95.59 596.89L52.29 621.89L8.99 596.89L8.99 546.89zM95.59 146.89L138.9 171.89L138.9 221.89L95.59 246.89L52.29 221.89L52.29 171.89zM138.9 371.89L182.2 396.89L182.2 446.89L138.9 471.89L95.59 446.89L95.59 396.89zM95.59 446.89L138.9 471.89L138.9 521.89L95.59 546.89L52.29 521.89L52.29 471.89zM182.2 146.89L225.5 171.89L225.5 221.89L182.2 246.89L138.9 221.89L138.9 171.89zM312.11 221.89L355.41 246.89L355.41 296.89L312.11 321.89L268.81 296.89L268.81 246.89zM355.41 146.89L398.71 171.89L398.71 221.89L355.41 246.89L312.11 221.89L312.11 171.89zM442.02 446.89L485.32 471.89L485.32 521.89L442.02 546.89L398.71 521.89L398.71 471.89zM485.32 521.89L528.62 546.89L528.62 596.89L485.32 621.89L442.02 596.89L442.02 546.89zM571.92 71.89L615.23 96.89L615.23 146.89L571.92 171.89L528.62 146.89L528.62 96.89zM745.13 71.89L788.44 96.89L788.44 146.89L745.13 171.89L701.83 146.89L701.83 96.89zM701.83 296.89L745.13 321.89L745.13 371.89L701.83 396.89L658.53 371.89L658.53 321.89zM701.83 446.89L745.13 471.89L745.13 521.89L701.83 546.89L658.53 521.89L658.53 471.89zM788.44 -3.11L831.74 21.89L831.74 71.89L788.44 96.89L745.13 71.89L745.13 21.89zM831.74 221.89L875.04 246.89L875.04 296.89L831.74 321.89L788.44 296.89L788.44 246.89zM831.74 371.89L875.04 396.89L875.04 446.89L831.74 471.89L788.44 446.89L788.44 396.89zM961.65 -3.11L1004.95 21.89L1004.95 71.89L961.65 96.89L918.34 71.89L918.34 21.89zM1048.25 446.89L1091.55 471.89L1091.55 521.89L1048.25 546.89L1004.95 521.89L1004.95 471.89zM1091.55 521.89L1134.86 546.89L1134.86 596.89L1091.55 621.89L1048.25 596.89L1048.25 546.89zM1178.16 221.89L1221.46 246.89L1221.46 296.89L1178.16 321.89L1134.86 296.89L1134.86 246.89zM1134.86 296.89L1178.16 321.89L1178.16 371.89L1134.86 396.89L1091.55 371.89L1091.55 321.89zM1351.37 71.89L1394.67 96.89L1394.67 146.89L1351.37 171.89L1308.07 146.89L1308.07 96.89zM1308.07 146.89L1351.37 171.89L1351.37 221.89L1308.07 246.89L1264.76 221.89L1264.76 171.89zM1308.07 446.89L1351.37 471.89L1351.37 521.89L1308.07 546.89L1264.76 521.89L1264.76 471.89zM1437.97 71.89L1481.28 96.89L1481.28 146.89L1437.97 171.89L1394.67 146.89L1394.67 96.89zM1394.67 296.89L1437.97 321.89L1437.97 371.89L1394.67 396.89L1351.37 371.89L1351.37 321.89zM1437.97 521.89L1481.28 546.89L1481.28 596.89L1437.97 621.89L1394.67 596.89L1394.67 546.89z" stroke="rgba(6, 80, 156, 0.93)" stroke-width="2"></path></g><defs><mask id="SvgjsMask1000"><rect width="1440" height="560" fill="#ffffff"></rect></mask></defs></svg>