<svg xmlns="http://www.w3.org/2000/svg" version="1.1" xmlns:xlink="http://www.w3.org/1999/xlink" xmlns:svgjs="http://svgjs.com/svgjs" width="1440" height="560" preserveAspectRatio="none" viewBox="0 0 1440 560"><g mask="url(&quot;#SvgjsMask1048&quot;)" fill="none"><rect width="1440" height="560" x="0" y="0" fill="#0e2a47"></rect><path d="M-89.92 380.72L-89.92 380.72" stroke="#132e65" stroke-width="1.5"></path><path d="M-89.92 380.72L-67.17 509.84" stroke="#132e65" stroke-width="1.5"></path><path d="M-89.92 380.72L104.61 356.91" stroke="#132e65" stroke-width="1.5"></path><path d="M-89.92 380.72L59.17 526.62" stroke="#132e65" stroke-width="1.5"></path><path d="M-67.17 509.84L-67.17 509.84" stroke="#132e65" stroke-width="1.5"></path><path d="M-67.17 509.84L59.17 526.62" stroke="#132e65" stroke-width="1.5"></path><path d="M-67.17 509.84L43.36 641.07" stroke="#132e65" stroke-width="1.5"></path><path d="M-67.17 509.84L-85.9 709.57" stroke="#132e65" stroke-width="1.5"></path><path d="M-85.9 709.57L-85.9 709.57" stroke="#132e65" stroke-width="1.5"></path><path d="M-85.9 709.57L43.36 641.07" stroke="#132e65" stroke-width="1.5"></path><path d="M-85.9 709.57L59.17 526.62" stroke="#132e65" stroke-width="1.5"></path><path d="M-85.9 709.57L195.13 559.41" stroke="#132e65" stroke-width="1.5"></path><path d="M104.61 356.91L104.61 356.91" stroke="#132e65" stroke-width="1.5"></path><path d="M104.61 356.91L188.27 408.6" stroke="#132e65" stroke-width="1.5"></path><path d="M59.17 526.62L59.17 526.62" stroke="#132e65" stroke-width="1.5"></path><path d="M59.17 526.62L43.36 641.07" stroke="#132e65" stroke-width="1.5"></path><path d="M59.17 526.62L195.13 559.41" stroke="#132e65" stroke-width="1.5"></path><path d="M59.17 526.62L188.27 408.6" stroke="#132e65" stroke-width="1.5"></path><path d="M59.17 526.62L104.61 356.91" stroke="#132e65" stroke-width="1.5"></path><path d="M43.36 641.07L43.36 641.07" stroke="#132e65" stroke-width="1.5"></path><path d="M188.27 408.6L188.27 408.6" stroke="#132e65" stroke-width="1.5"></path><path d="M188.27 408.6L195.13 559.41" stroke="#132e65" stroke-width="1.5"></path><path d="M188.27 408.6L354.87 393.14" stroke="#132e65" stroke-width="1.5"></path><path d="M188.27 408.6L375.13 527.79" stroke="#132e65" stroke-width="1.5"></path><path d="M195.13 559.41L195.13 559.41" stroke="#132e65" stroke-width="1.5"></path><path d="M195.13 559.41L232.28 686.78" stroke="#132e65" stroke-width="1.5"></path><path d="M195.13 559.41L43.36 641.07" stroke="#132e65" stroke-width="1.5"></path><path d="M195.13 559.41L375.13 527.79" stroke="#132e65" stroke-width="1.5"></path><path d="M232.28 686.78L232.28 686.78" stroke="#132e65" stroke-width="1.5"></path><path d="M232.28 686.78L43.36 641.07" stroke="#132e65" stroke-width="1.5"></path><path d="M232.28 686.78L375.13 527.79" stroke="#132e65" stroke-width="1.5"></path><path d="M232.28 686.78L59.17 526.62" stroke="#132e65" stroke-width="1.5"></path><path d="M232.28 686.78L188.27 408.6" stroke="#132e65" stroke-width="1.5"></path><path d="M354.87 393.14L354.87 393.14" stroke="#132e65" stroke-width="1.5"></path><path d="M354.87 393.14L375.13 527.79" stroke="#132e65" stroke-width="1.5"></path><path d="M375.13 527.79L375.13 527.79" stroke="#132e65" stroke-width="1.5"></path><path d="M375.13 527.79L534.38 561.78" stroke="#132e65" stroke-width="1.5"></path><path d="M501.82 358.99L501.82 358.99" stroke="#132e65" stroke-width="1.5"></path><path d="M501.82 358.99L354.87 393.14" stroke="#132e65" stroke-width="1.5"></path><path d="M501.82 358.99L698.38 376.73" stroke="#132e65" stroke-width="1.5"></path><path d="M534.38 561.78L534.38 561.78" stroke="#132e65" stroke-width="1.5"></path><path d="M534.38 561.78L516.39 658.61" stroke="#132e65" stroke-width="1.5"></path><path d="M534.38 561.78L655.53 499.75" stroke="#132e65" stroke-width="1.5"></path><path d="M534.38 561.78L501.82 358.99" stroke="#132e65" stroke-width="1.5"></path><path d="M534.38 561.78L354.87 393.14" stroke="#132e65" stroke-width="1.5"></path><path d="M516.39 658.61L516.39 658.61" stroke="#132e65" stroke-width="1.5"></path><path d="M516.39 658.61L375.13 527.79" stroke="#132e65" stroke-width="1.5"></path><path d="M516.39 658.61L655.53 499.75" stroke="#132e65" stroke-width="1.5"></path><path d="M516.39 658.61L796.74 687.63" stroke="#132e65" stroke-width="1.5"></path><path d="M682.3 219.71L682.3 219.71" stroke="#132e65" stroke-width="1.5"></path><path d="M682.3 219.71L698.38 376.73" stroke="#132e65" stroke-width="1.5"></path><path d="M682.3 219.71L850.07 260.79" stroke="#132e65" stroke-width="1.5"></path><path d="M682.3 219.71L798.53 368.19" stroke="#132e65" stroke-width="1.5"></path><path d="M698.38 376.73L698.38 376.73" stroke="#132e65" stroke-width="1.5"></path><path d="M698.38 376.73L798.53 368.19" stroke="#132e65" stroke-width="1.5"></path><path d="M698.38 376.73L655.53 499.75" stroke="#132e65" stroke-width="1.5"></path><path d="M655.53 499.75L655.53 499.75" stroke="#132e65" stroke-width="1.5"></path><path d="M655.53 499.75L811.02 499.46" stroke="#132e65" stroke-width="1.5"></path><path d="M655.53 499.75L798.53 368.19" stroke="#132e65" stroke-width="1.5"></path><path d="M655.53 499.75L501.82 358.99" stroke="#132e65" stroke-width="1.5"></path><path d="M852.06 101.48L852.06 101.48" stroke="#132e65" stroke-width="1.5"></path><path d="M852.06 101.48L992.05 109.11" stroke="#132e65" stroke-width="1.5"></path><path d="M852.06 101.48L850.07 260.79" stroke="#132e65" stroke-width="1.5"></path><path d="M850.07 260.79L850.07 260.79" stroke="#132e65" stroke-width="1.5"></path><path d="M850.07 260.79L798.53 368.19" stroke="#132e65" stroke-width="1.5"></path><path d="M850.07 260.79L967.49 365.66" stroke="#132e65" stroke-width="1.5"></path><path d="M850.07 260.79L998.75 201.28" stroke="#132e65" stroke-width="1.5"></path><path d="M798.53 368.19L798.53 368.19" stroke="#132e65" stroke-width="1.5"></path><path d="M798.53 368.19L811.02 499.46" stroke="#132e65" stroke-width="1.5"></path><path d="M798.53 368.19L967.49 365.66" stroke="#132e65" stroke-width="1.5"></path><path d="M811.02 499.46L811.02 499.46" stroke="#132e65" stroke-width="1.5"></path><path d="M811.02 499.46L975.88 509.34" stroke="#132e65" stroke-width="1.5"></path><path d="M796.74 687.63L796.74 687.63" stroke="#132e65" stroke-width="1.5"></path><path d="M796.74 687.63L966.1 690.15" stroke="#132e65" stroke-width="1.5"></path><path d="M796.74 687.63L811.02 499.46" stroke="#132e65" stroke-width="1.5"></path><path d="M981.25 -67.18L981.25 -67.18" stroke="#132e65" stroke-width="1.5"></path><path d="M981.25 -67.18L1100.03 -88.66" stroke="#132e65" stroke-width="1.5"></path><path d="M981.25 -67.18L992.05 109.11" stroke="#132e65" stroke-width="1.5"></path><path d="M981.25 -67.18L1110.77 91.07" stroke="#132e65" stroke-width="1.5"></path><path d="M992.05 109.11L992.05 109.11" stroke="#132e65" stroke-width="1.5"></path><path d="M992.05 109.11L998.75 201.28" stroke="#132e65" stroke-width="1.5"></path><path d="M992.05 109.11L1110.77 91.07" stroke="#132e65" stroke-width="1.5"></path><path d="M992.05 109.11L1142.65 233.21" stroke="#132e65" stroke-width="1.5"></path><path d="M992.05 109.11L850.07 260.79" stroke="#132e65" stroke-width="1.5"></path><path d="M998.75 201.28L998.75 201.28" stroke="#132e65" stroke-width="1.5"></path><path d="M998.75 201.28L1142.65 233.21" stroke="#132e65" stroke-width="1.5"></path><path d="M998.75 201.28L1110.77 91.07" stroke="#132e65" stroke-width="1.5"></path><path d="M967.49 365.66L967.49 365.66" stroke="#132e65" stroke-width="1.5"></path><path d="M967.49 365.66L975.88 509.34" stroke="#132e65" stroke-width="1.5"></path><path d="M975.88 509.34L975.88 509.34" stroke="#132e65" stroke-width="1.5"></path><path d="M975.88 509.34L1132.63 552.82" stroke="#132e65" stroke-width="1.5"></path><path d="M975.88 509.34L966.1 690.15" stroke="#132e65" stroke-width="1.5"></path><path d="M975.88 509.34L1152.33 403.01" stroke="#132e65" stroke-width="1.5"></path><path d="M975.88 509.34L1136.46 663.36" stroke="#132e65" stroke-width="1.5"></path><path d="M966.1 690.15L966.1 690.15" stroke="#132e65" stroke-width="1.5"></path><path d="M966.1 690.15L1136.46 663.36" stroke="#132e65" stroke-width="1.5"></path><path d="M966.1 690.15L1132.63 552.82" stroke="#132e65" stroke-width="1.5"></path><path d="M966.1 690.15L811.02 499.46" stroke="#132e65" stroke-width="1.5"></path><path d="M1100.03 -88.66L1100.03 -88.66" stroke="#132e65" stroke-width="1.5"></path><path d="M1100.03 -88.66L1269.09 -43.56" stroke="#132e65" stroke-width="1.5"></path><path d="M1100.03 -88.66L1110.77 91.07" stroke="#132e65" stroke-width="1.5"></path><path d="M1100.03 -88.66L992.05 109.11" stroke="#132e65" stroke-width="1.5"></path><path d="M1100.03 -88.66L1269.71 104.34" stroke="#132e65" stroke-width="1.5"></path><path d="M1110.77 91.07L1110.77 91.07" stroke="#132e65" stroke-width="1.5"></path><path d="M1110.77 91.07L1142.65 233.21" stroke="#132e65" stroke-width="1.5"></path><path d="M1142.65 233.21L1142.65 233.21" stroke="#132e65" stroke-width="1.5"></path><path d="M1142.65 233.21L1261.06 230.37" stroke="#132e65" stroke-width="1.5"></path><path d="M1152.33 403.01L1152.33 403.01" stroke="#132e65" stroke-width="1.5"></path><path d="M1152.33 403.01L1132.63 552.82" stroke="#132e65" stroke-width="1.5"></path><path d="M1152.33 403.01L1305.22 405.35" stroke="#132e65" stroke-width="1.5"></path><path d="M1152.33 403.01L1142.65 233.21" stroke="#132e65" stroke-width="1.5"></path><path d="M1152.33 403.01L1284.36 511.12" stroke="#132e65" stroke-width="1.5"></path><path d="M1152.33 403.01L967.49 365.66" stroke="#132e65" stroke-width="1.5"></path><path d="M1132.63 552.82L1132.63 552.82" stroke="#132e65" stroke-width="1.5"></path><path d="M1132.63 552.82L1136.46 663.36" stroke="#132e65" stroke-width="1.5"></path><path d="M1132.63 552.82L1284.36 511.12" stroke="#132e65" stroke-width="1.5"></path><path d="M1132.63 552.82L1305.22 405.35" stroke="#132e65" stroke-width="1.5"></path><path d="M1136.46 663.36L1136.46 663.36" stroke="#132e65" stroke-width="1.5"></path><path d="M1136.46 663.36L1284.36 511.12" stroke="#132e65" stroke-width="1.5"></path><path d="M1269.09 -43.56L1269.09 -43.56" stroke="#132e65" stroke-width="1.5"></path><path d="M1269.09 -43.56L1388.76 -53.23" stroke="#132e65" stroke-width="1.5"></path><path d="M1269.09 -43.56L1269.71 104.34" stroke="#132e65" stroke-width="1.5"></path><path d="M1269.09 -43.56L1413.71 51.3" stroke="#132e65" stroke-width="1.5"></path><path d="M1269.09 -43.56L1110.77 91.07" stroke="#132e65" stroke-width="1.5"></path><path d="M1269.09 -43.56L1261.06 230.37" stroke="#132e65" stroke-width="1.5"></path><path d="M1269.71 104.34L1269.71 104.34" stroke="#132e65" stroke-width="1.5"></path><path d="M1269.71 104.34L1261.06 230.37" stroke="#132e65" stroke-width="1.5"></path><path d="M1269.71 104.34L1413.71 51.3" stroke="#132e65" stroke-width="1.5"></path><path d="M1269.71 104.34L1110.77 91.07" stroke="#132e65" stroke-width="1.5"></path><path d="M1261.06 230.37L1261.06 230.37" stroke="#132e65" stroke-width="1.5"></path><path d="M1305.22 405.35L1305.22 405.35" stroke="#132e65" stroke-width="1.5"></path><path d="M1305.22 405.35L1284.36 511.12" stroke="#132e65" stroke-width="1.5"></path><path d="M1305.22 405.35L1461.52 384.8" stroke="#132e65" stroke-width="1.5"></path><path d="M1305.22 405.35L1399.59 254.67" stroke="#132e65" stroke-width="1.5"></path><path d="M1305.22 405.35L1452.8 507.73" stroke="#132e65" stroke-width="1.5"></path><path d="M1284.36 511.12L1284.36 511.12" stroke="#132e65" stroke-width="1.5"></path><path d="M1388.76 -53.23L1388.76 -53.23" stroke="#132e65" stroke-width="1.5"></path><path d="M1388.76 -53.23L1413.71 51.3" stroke="#132e65" stroke-width="1.5"></path><path d="M1388.76 -53.23L1544.61 -63.28" stroke="#132e65" stroke-width="1.5"></path><path d="M1388.76 -53.23L1269.71 104.34" stroke="#132e65" stroke-width="1.5"></path><path d="M1413.71 51.3L1413.71 51.3" stroke="#132e65" stroke-width="1.5"></path><path d="M1413.71 51.3L1548.76 88.72" stroke="#132e65" stroke-width="1.5"></path><path d="M1413.71 51.3L1544.61 -63.28" stroke="#132e65" stroke-width="1.5"></path><path d="M1399.59 254.67L1399.59 254.67" stroke="#132e65" stroke-width="1.5"></path><path d="M1399.59 254.67L1261.06 230.37" stroke="#132e65" stroke-width="1.5"></path><path d="M1399.59 254.67L1461.52 384.8" stroke="#132e65" stroke-width="1.5"></path><path d="M1399.59 254.67L1564.74 249.02" stroke="#132e65" stroke-width="1.5"></path><path d="M1461.52 384.8L1461.52 384.8" stroke="#132e65" stroke-width="1.5"></path><path d="M1461.52 384.8L1452.8 507.73" stroke="#132e65" stroke-width="1.5"></path><path d="M1461.52 384.8L1601.47 404.24" stroke="#132e65" stroke-width="1.5"></path><path d="M1461.52 384.8L1564.74 249.02" stroke="#132e65" stroke-width="1.5"></path><path d="M1461.52 384.8L1567.46 518.68" stroke="#132e65" stroke-width="1.5"></path><path d="M1452.8 507.73L1452.8 507.73" stroke="#132e65" stroke-width="1.5"></path><path d="M1452.8 507.73L1567.46 518.68" stroke="#132e65" stroke-width="1.5"></path><path d="M1397.76 650.73L1397.76 650.73" stroke="#132e65" stroke-width="1.5"></path><path d="M1397.76 650.73L1452.8 507.73" stroke="#132e65" stroke-width="1.5"></path><path d="M1544.61 -63.28L1544.61 -63.28" stroke="#132e65" stroke-width="1.5"></path><path d="M1544.61 -63.28L1548.76 88.72" stroke="#132e65" stroke-width="1.5"></path><path d="M1548.76 88.72L1548.76 88.72" stroke="#132e65" stroke-width="1.5"></path><path d="M1564.74 249.02L1564.74 249.02" stroke="#132e65" stroke-width="1.5"></path><path d="M1564.74 249.02L1601.47 404.24" stroke="#132e65" stroke-width="1.5"></path><path d="M1564.74 249.02L1548.76 88.72" stroke="#132e65" stroke-width="1.5"></path><path d="M1564.74 249.02L1413.71 51.3" stroke="#132e65" stroke-width="1.5"></path><path d="M1564.74 249.02L1567.46 518.68" stroke="#132e65" stroke-width="1.5"></path><path d="M1601.47 404.24L1601.47 404.24" stroke="#132e65" stroke-width="1.5"></path><path d="M1601.47 404.24L1567.46 518.68" stroke="#132e65" stroke-width="1.5"></path><path d="M1601.47 404.24L1452.8 507.73" stroke="#132e65" stroke-width="1.5"></path><path d="M1567.46 518.68L1567.46 518.68" stroke="#132e65" stroke-width="1.5"></path><path d="M1567.46 518.68L1581.97 646.16" stroke="#132e65" stroke-width="1.5"></path><path d="M1567.46 518.68L1397.76 650.73" stroke="#132e65" stroke-width="1.5"></path><path d="M1581.97 646.16L1581.97 646.16" stroke="#132e65" stroke-width="1.5"></path><path d="M1581.97 646.16L1397.76 650.73" stroke="#132e65" stroke-width="1.5"></path><path d="M1581.97 646.16L1452.8 507.73" stroke="#132e65" stroke-width="1.5"></path><circle r="5" cx="-89.92" cy="380.72" fill="#132e65"></circle><circle r="5" cx="-67.17" cy="509.84" fill="#132e65"></circle><circle r="5" cx="-85.9" cy="709.57" fill="#132e65"></circle><circle r="5" cx="104.61" cy="356.91" fill="#132e65"></circle><circle r="5" cx="59.17" cy="526.62" fill="#132e65"></circle><circle r="5" cx="43.36" cy="641.07" fill="#132e65"></circle><circle r="5" cx="188.27" cy="408.6" fill="#132e65"></circle><circle r="5" cx="195.13" cy="559.41" fill="#132e65"></circle><circle r="5" cx="232.28" cy="686.78" fill="#132e65"></circle><circle r="5" cx="354.87" cy="393.14" fill="#132e65"></circle><circle r="5" cx="375.13" cy="527.79" fill="#132e65"></circle><circle r="5" cx="501.82" cy="358.99" fill="#132e65"></circle><circle r="5" cx="534.38" cy="561.78" fill="#132e65"></circle><circle r="5" cx="516.39" cy="658.61" fill="#132e65"></circle><circle r="5" cx="682.3" cy="219.71" fill="#132e65"></circle><circle r="5" cx="698.38" cy="376.73" fill="#132e65"></circle><circle r="5" cx="655.53" cy="499.75" fill="#132e65"></circle><circle r="5" cx="852.06" cy="101.48" fill="#132e65"></circle><circle r="5" cx="850.07" cy="260.79" fill="#132e65"></circle><circle r="5" cx="798.53" cy="368.19" fill="#132e65"></circle><circle r="5" cx="811.02" cy="499.46" fill="#132e65"></circle><circle r="5" cx="796.74" cy="687.63" fill="#132e65"></circle><circle r="5" cx="981.25" cy="-67.18" fill="#132e65"></circle><circle r="5" cx="992.05" cy="109.11" fill="#132e65"></circle><circle r="5" cx="998.75" cy="201.28" fill="#132e65"></circle><circle r="5" cx="967.49" cy="365.66" fill="#132e65"></circle><circle r="5" cx="975.88" cy="509.34" fill="#132e65"></circle><circle r="5" cx="966.1" cy="690.15" fill="#132e65"></circle><circle r="5" cx="1100.03" cy="-88.66" fill="#132e65"></circle><circle r="5" cx="1110.77" cy="91.07" fill="#132e65"></circle><circle r="5" cx="1142.65" cy="233.21" fill="#132e65"></circle><circle r="5" cx="1152.33" cy="403.01" fill="#132e65"></circle><circle r="5" cx="1132.63" cy="552.82" fill="#132e65"></circle><circle r="5" cx="1136.46" cy="663.36" fill="#132e65"></circle><circle r="5" cx="1269.09" cy="-43.56" fill="#132e65"></circle><circle r="5" cx="1269.71" cy="104.34" fill="#132e65"></circle><circle r="5" cx="1261.06" cy="230.37" fill="#132e65"></circle><circle r="5" cx="1305.22" cy="405.35" fill="#132e65"></circle><circle r="5" cx="1284.36" cy="511.12" fill="#132e65"></circle><circle r="5" cx="1388.76" cy="-53.23" fill="#132e65"></circle><circle r="5" cx="1413.71" cy="51.3" fill="#132e65"></circle><circle r="5" cx="1399.59" cy="254.67" fill="#132e65"></circle><circle r="5" cx="1461.52" cy="384.8" fill="#132e65"></circle><circle r="5" cx="1452.8" cy="507.73" fill="#132e65"></circle><circle r="5" cx="1397.76" cy="650.73" fill="#132e65"></circle><circle r="5" cx="1544.61" cy="-63.28" fill="#132e65"></circle><circle r="5" cx="1548.76" cy="88.72" fill="#132e65"></circle><circle r="5" cx="1564.74" cy="249.02" fill="#132e65"></circle><circle r="5" cx="1601.47" cy="404.24" fill="#132e65"></circle><circle r="5" cx="1567.46" cy="518.68" fill="#132e65"></circle><circle r="5" cx="1581.97" cy="646.16" fill="#132e65"></circle><path d="M952.63 342.21L952.63 342.21" stroke="hsl(228.5, 77.2%, 51.5%)" stroke-width="1.5"></path><path d="M952.63 342.21L805.46 393.27" stroke="hsl(228.5, 77.2%, 51.5%)" stroke-width="1.5"></path><path d="M952.63 342.21L1107.65 243.92" stroke="hsl(228.5, 77.2%, 51.5%)" stroke-width="1.5"></path><path d="M952.63 342.21L1006.73 527.04" stroke="hsl(228.5, 77.2%, 51.5%)" stroke-width="1.5"></path><path d="M952.63 342.21L1160.71 350.92" stroke="hsl(228.5, 77.2%, 51.5%)" stroke-width="1.5"></path><path d="M952.63 342.21L837.15 554.11" stroke="hsl(228.5, 77.2%, 51.5%)" stroke-width="1.5"></path><path d="M952.63 342.21L1098.85 557.98" stroke="hsl(228.5, 77.2%, 51.5%)" stroke-width="1.5"></path><path d="M1107.65 243.92L1107.65 243.92" stroke="hsl(228.5, 77.2%, 51.5%)" stroke-width="1.5"></path><path d="M1107.65 243.92L1160.71 350.92" stroke="hsl(228.5, 77.2%, 51.5%)" stroke-width="1.5"></path><path d="M1107.65 243.92L1312.46 213.96" stroke="hsl(228.5, 77.2%, 51.5%)" stroke-width="1.5"></path><path d="M1581.13 357.77L1581.13 357.77" stroke="hsl(228.5, 77.2%, 51.5%)" stroke-width="1.5"></path><path d="M1581.13 357.77L1583.19 231.55" stroke="hsl(228.5, 77.2%, 51.5%)" stroke-width="1.5"></path><path d="M1581.13 357.77L1439.48 400.19" stroke="hsl(228.5, 77.2%, 51.5%)" stroke-width="1.5"></path><path d="M1581.13 357.77L1398.02 251.5" stroke="hsl(228.5, 77.2%, 51.5%)" stroke-width="1.5"></path><path d="M1581.13 357.77L1398.61 555.18" stroke="hsl(228.5, 77.2%, 51.5%)" stroke-width="1.5"></path><path d="M-45.31 505.25L-45.31 505.25" stroke="hsl(228.5, 77.2%, 51.5%)" stroke-width="1.5"></path><path d="M-45.31 505.25L104.93 522.73" stroke="hsl(228.5, 77.2%, 51.5%)" stroke-width="1.5"></path><path d="M-45.31 505.25L-47.65 675.69" stroke="hsl(228.5, 77.2%, 51.5%)" stroke-width="1.5"></path><path d="M-45.31 505.25L71.8 700.75" stroke="hsl(228.5, 77.2%, 51.5%)" stroke-width="1.5"></path><path d="M-47.65 675.69L-47.65 675.69" stroke="hsl(228.5, 77.2%, 51.5%)" stroke-width="1.5"></path><path d="M-47.65 675.69L71.8 700.75" stroke="hsl(228.5, 77.2%, 51.5%)" stroke-width="1.5"></path><path d="M-47.65 675.69L104.93 522.73" stroke="hsl(228.5, 77.2%, 51.5%)" stroke-width="1.5"></path><path d="M-47.65 675.69L245.3 682.74" stroke="hsl(228.5, 77.2%, 51.5%)" stroke-width="1.5"></path><path d="M-47.65 675.69L219.45 502.5" stroke="hsl(228.5, 77.2%, 51.5%)" stroke-width="1.5"></path><path d="M-47.65 675.69L360.97 509.06" stroke="hsl(228.5, 77.2%, 51.5%)" stroke-width="1.5"></path><path d="M104.93 522.73L104.93 522.73" stroke="hsl(228.5, 77.2%, 51.5%)" stroke-width="1.5"></path><path d="M104.93 522.73L219.45 502.5" stroke="hsl(228.5, 77.2%, 51.5%)" stroke-width="1.5"></path><path d="M104.93 522.73L71.8 700.75" stroke="hsl(228.5, 77.2%, 51.5%)" stroke-width="1.5"></path><path d="M104.93 522.73L245.3 682.74" stroke="hsl(228.5, 77.2%, 51.5%)" stroke-width="1.5"></path><path d="M71.8 700.75L71.8 700.75" stroke="hsl(228.5, 77.2%, 51.5%)" stroke-width="1.5"></path><path d="M71.8 700.75L245.3 682.74" stroke="hsl(228.5, 77.2%, 51.5%)" stroke-width="1.5"></path><path d="M71.8 700.75L219.45 502.5" stroke="hsl(228.5, 77.2%, 51.5%)" stroke-width="1.5"></path><path d="M219.45 502.5L219.45 502.5" stroke="hsl(228.5, 77.2%, 51.5%)" stroke-width="1.5"></path><path d="M219.45 502.5L360.97 509.06" stroke="hsl(228.5, 77.2%, 51.5%)" stroke-width="1.5"></path><path d="M219.45 502.5L245.3 682.74" stroke="hsl(228.5, 77.2%, 51.5%)" stroke-width="1.5"></path><path d="M219.45 502.5L401.65 640.14" stroke="hsl(228.5, 77.2%, 51.5%)" stroke-width="1.5"></path><path d="M245.3 682.74L245.3 682.74" stroke="hsl(228.5, 77.2%, 51.5%)" stroke-width="1.5"></path><path d="M245.3 682.74L401.65 640.14" stroke="hsl(228.5, 77.2%, 51.5%)" stroke-width="1.5"></path><path d="M360.97 509.06L360.97 509.06" stroke="hsl(228.5, 77.2%, 51.5%)" stroke-width="1.5"></path><path d="M360.97 509.06L401.65 640.14" stroke="hsl(228.5, 77.2%, 51.5%)" stroke-width="1.5"></path><path d="M360.97 509.06L521.81 531.83" stroke="hsl(228.5, 77.2%, 51.5%)" stroke-width="1.5"></path><path d="M401.65 640.14L401.65 640.14" stroke="hsl(228.5, 77.2%, 51.5%)" stroke-width="1.5"></path><path d="M401.65 640.14L554.46 685.35" stroke="hsl(228.5, 77.2%, 51.5%)" stroke-width="1.5"></path><path d="M401.65 640.14L521.81 531.83" stroke="hsl(228.5, 77.2%, 51.5%)" stroke-width="1.5"></path><path d="M541.57 399.54L541.57 399.54" stroke="hsl(228.5, 77.2%, 51.5%)" stroke-width="1.5"></path><path d="M541.57 399.54L651.56 405.6" stroke="hsl(228.5, 77.2%, 51.5%)" stroke-width="1.5"></path><path d="M521.81 531.83L521.81 531.83" stroke="hsl(228.5, 77.2%, 51.5%)" stroke-width="1.5"></path><path d="M521.81 531.83L541.57 399.54" stroke="hsl(228.5, 77.2%, 51.5%)" stroke-width="1.5"></path><path d="M521.81 531.83L666.85 536.94" stroke="hsl(228.5, 77.2%, 51.5%)" stroke-width="1.5"></path><path d="M521.81 531.83L554.46 685.35" stroke="hsl(228.5, 77.2%, 51.5%)" stroke-width="1.5"></path><path d="M521.81 531.83L651.56 405.6" stroke="hsl(228.5, 77.2%, 51.5%)" stroke-width="1.5"></path><path d="M554.46 685.35L554.46 685.35" stroke="hsl(228.5, 77.2%, 51.5%)" stroke-width="1.5"></path><path d="M554.46 685.35L638.04 703.72" stroke="hsl(228.5, 77.2%, 51.5%)" stroke-width="1.5"></path><path d="M651.56 405.6L651.56 405.6" stroke="hsl(228.5, 77.2%, 51.5%)" stroke-width="1.5"></path><path d="M651.56 405.6L666.85 536.94" stroke="hsl(228.5, 77.2%, 51.5%)" stroke-width="1.5"></path><path d="M651.56 405.6L805.46 393.27" stroke="hsl(228.5, 77.2%, 51.5%)" stroke-width="1.5"></path><path d="M666.85 536.94L666.85 536.94" stroke="hsl(228.5, 77.2%, 51.5%)" stroke-width="1.5"></path><path d="M666.85 536.94L638.04 703.72" stroke="hsl(228.5, 77.2%, 51.5%)" stroke-width="1.5"></path><path d="M638.04 703.72L638.04 703.72" stroke="hsl(228.5, 77.2%, 51.5%)" stroke-width="1.5"></path><path d="M638.04 703.72L838.72 704.52" stroke="hsl(228.5, 77.2%, 51.5%)" stroke-width="1.5"></path><path d="M638.04 703.72L521.81 531.83" stroke="hsl(228.5, 77.2%, 51.5%)" stroke-width="1.5"></path><path d="M638.04 703.72L401.65 640.14" stroke="hsl(228.5, 77.2%, 51.5%)" stroke-width="1.5"></path><path d="M805.46 393.27L805.46 393.27" stroke="hsl(228.5, 77.2%, 51.5%)" stroke-width="1.5"></path><path d="M805.46 393.27L837.15 554.11" stroke="hsl(228.5, 77.2%, 51.5%)" stroke-width="1.5"></path><path d="M805.46 393.27L666.85 536.94" stroke="hsl(228.5, 77.2%, 51.5%)" stroke-width="1.5"></path><path d="M837.15 554.11L837.15 554.11" stroke="hsl(228.5, 77.2%, 51.5%)" stroke-width="1.5"></path><path d="M837.15 554.11L838.72 704.52" stroke="hsl(228.5, 77.2%, 51.5%)" stroke-width="1.5"></path><path d="M837.15 554.11L666.85 536.94" stroke="hsl(228.5, 77.2%, 51.5%)" stroke-width="1.5"></path><path d="M837.15 554.11L1006.73 527.04" stroke="hsl(228.5, 77.2%, 51.5%)" stroke-width="1.5"></path><path d="M837.15 554.11L1003.37 647.99" stroke="hsl(228.5, 77.2%, 51.5%)" stroke-width="1.5"></path><path d="M838.72 704.52L838.72 704.52" stroke="hsl(228.5, 77.2%, 51.5%)" stroke-width="1.5"></path><path d="M838.72 704.52L1003.37 647.99" stroke="hsl(228.5, 77.2%, 51.5%)" stroke-width="1.5"></path><path d="M838.72 704.52L666.85 536.94" stroke="hsl(228.5, 77.2%, 51.5%)" stroke-width="1.5"></path><path d="M838.72 704.52L1006.73 527.04" stroke="hsl(228.5, 77.2%, 51.5%)" stroke-width="1.5"></path><path d="M838.72 704.52L554.46 685.35" stroke="hsl(228.5, 77.2%, 51.5%)" stroke-width="1.5"></path><path d="M1006.73 527.04L1006.73 527.04" stroke="hsl(228.5, 77.2%, 51.5%)" stroke-width="1.5"></path><path d="M1006.73 527.04L1098.85 557.98" stroke="hsl(228.5, 77.2%, 51.5%)" stroke-width="1.5"></path><path d="M1006.73 527.04L1003.37 647.99" stroke="hsl(228.5, 77.2%, 51.5%)" stroke-width="1.5"></path><path d="M1006.73 527.04L1135.59 705.81" stroke="hsl(228.5, 77.2%, 51.5%)" stroke-width="1.5"></path><path d="M1003.37 647.99L1003.37 647.99" stroke="hsl(228.5, 77.2%, 51.5%)" stroke-width="1.5"></path><path d="M1160.71 350.92L1160.71 350.92" stroke="hsl(228.5, 77.2%, 51.5%)" stroke-width="1.5"></path><path d="M1160.71 350.92L1261.94 511.39" stroke="hsl(228.5, 77.2%, 51.5%)" stroke-width="1.5"></path><path d="M1098.85 557.98L1098.85 557.98" stroke="hsl(228.5, 77.2%, 51.5%)" stroke-width="1.5"></path><path d="M1098.85 557.98L1003.37 647.99" stroke="hsl(228.5, 77.2%, 51.5%)" stroke-width="1.5"></path><path d="M1098.85 557.98L1135.59 705.81" stroke="hsl(228.5, 77.2%, 51.5%)" stroke-width="1.5"></path><path d="M1098.85 557.98L1261.94 511.39" stroke="hsl(228.5, 77.2%, 51.5%)" stroke-width="1.5"></path><path d="M1098.85 557.98L1160.71 350.92" stroke="hsl(228.5, 77.2%, 51.5%)" stroke-width="1.5"></path><path d="M1135.59 705.81L1135.59 705.81" stroke="hsl(228.5, 77.2%, 51.5%)" stroke-width="1.5"></path><path d="M1135.59 705.81L1003.37 647.99" stroke="hsl(228.5, 77.2%, 51.5%)" stroke-width="1.5"></path><path d="M1135.59 705.81L1300.86 670.96" stroke="hsl(228.5, 77.2%, 51.5%)" stroke-width="1.5"></path><path d="M1135.59 705.81L1261.94 511.39" stroke="hsl(228.5, 77.2%, 51.5%)" stroke-width="1.5"></path><path d="M1135.59 705.81L1399.74 662.87" stroke="hsl(228.5, 77.2%, 51.5%)" stroke-width="1.5"></path><path d="M1307.77 -68.79L1307.77 -68.79" stroke="hsl(228.5, 77.2%, 51.5%)" stroke-width="1.5"></path><path d="M1307.77 -68.79L1435.95 -104.42" stroke="hsl(228.5, 77.2%, 51.5%)" stroke-width="1.5"></path><path d="M1307.77 -68.79L1272.34 83.08" stroke="hsl(228.5, 77.2%, 51.5%)" stroke-width="1.5"></path><path d="M1307.77 -68.79L1406.02 58.37" stroke="hsl(228.5, 77.2%, 51.5%)" stroke-width="1.5"></path><path d="M1307.77 -68.79L1548.94 -99.29" stroke="hsl(228.5, 77.2%, 51.5%)" stroke-width="1.5"></path><path d="M1272.34 83.08L1272.34 83.08" stroke="hsl(228.5, 77.2%, 51.5%)" stroke-width="1.5"></path><path d="M1272.34 83.08L1406.02 58.37" stroke="hsl(228.5, 77.2%, 51.5%)" stroke-width="1.5"></path><path d="M1272.34 83.08L1312.46 213.96" stroke="hsl(228.5, 77.2%, 51.5%)" stroke-width="1.5"></path><path d="M1312.46 213.96L1312.46 213.96" stroke="hsl(228.5, 77.2%, 51.5%)" stroke-width="1.5"></path><path d="M1312.46 213.96L1398.02 251.5" stroke="hsl(228.5, 77.2%, 51.5%)" stroke-width="1.5"></path><path d="M1312.46 213.96L1406.02 58.37" stroke="hsl(228.5, 77.2%, 51.5%)" stroke-width="1.5"></path><path d="M1312.46 213.96L1160.71 350.92" stroke="hsl(228.5, 77.2%, 51.5%)" stroke-width="1.5"></path><path d="M1261.94 511.39L1261.94 511.39" stroke="hsl(228.5, 77.2%, 51.5%)" stroke-width="1.5"></path><path d="M1261.94 511.39L1398.61 555.18" stroke="hsl(228.5, 77.2%, 51.5%)" stroke-width="1.5"></path><path d="M1300.86 670.96L1300.86 670.96" stroke="hsl(228.5, 77.2%, 51.5%)" stroke-width="1.5"></path><path d="M1300.86 670.96L1399.74 662.87" stroke="hsl(228.5, 77.2%, 51.5%)" stroke-width="1.5"></path><path d="M1300.86 670.96L1398.61 555.18" stroke="hsl(228.5, 77.2%, 51.5%)" stroke-width="1.5"></path><path d="M1300.86 670.96L1261.94 511.39" stroke="hsl(228.5, 77.2%, 51.5%)" stroke-width="1.5"></path><path d="M1435.95 -104.42L1435.95 -104.42" stroke="hsl(228.5, 77.2%, 51.5%)" stroke-width="1.5"></path><path d="M1435.95 -104.42L1548.94 -99.29" stroke="hsl(228.5, 77.2%, 51.5%)" stroke-width="1.5"></path><path d="M1435.95 -104.42L1406.02 58.37" stroke="hsl(228.5, 77.2%, 51.5%)" stroke-width="1.5"></path><path d="M1435.95 -104.42L1574.21 78.12" stroke="hsl(228.5, 77.2%, 51.5%)" stroke-width="1.5"></path><path d="M1435.95 -104.42L1272.34 83.08" stroke="hsl(228.5, 77.2%, 51.5%)" stroke-width="1.5"></path><path d="M1406.02 58.37L1406.02 58.37" stroke="hsl(228.5, 77.2%, 51.5%)" stroke-width="1.5"></path><path d="M1398.02 251.5L1398.02 251.5" stroke="hsl(228.5, 77.2%, 51.5%)" stroke-width="1.5"></path><path d="M1398.02 251.5L1439.48 400.19" stroke="hsl(228.5, 77.2%, 51.5%)" stroke-width="1.5"></path><path d="M1398.02 251.5L1583.19 231.55" stroke="hsl(228.5, 77.2%, 51.5%)" stroke-width="1.5"></path><path d="M1398.02 251.5L1406.02 58.37" stroke="hsl(228.5, 77.2%, 51.5%)" stroke-width="1.5"></path><path d="M1398.02 251.5L1272.34 83.08" stroke="hsl(228.5, 77.2%, 51.5%)" stroke-width="1.5"></path><path d="M1439.48 400.19L1439.48 400.19" stroke="hsl(228.5, 77.2%, 51.5%)" stroke-width="1.5"></path><path d="M1439.48 400.19L1398.61 555.18" stroke="hsl(228.5, 77.2%, 51.5%)" stroke-width="1.5"></path><path d="M1439.48 400.19L1261.94 511.39" stroke="hsl(228.5, 77.2%, 51.5%)" stroke-width="1.5"></path><path d="M1439.48 400.19L1583.19 231.55" stroke="hsl(228.5, 77.2%, 51.5%)" stroke-width="1.5"></path><path d="M1398.61 555.18L1398.61 555.18" stroke="hsl(228.5, 77.2%, 51.5%)" stroke-width="1.5"></path><path d="M1398.61 555.18L1399.74 662.87" stroke="hsl(228.5, 77.2%, 51.5%)" stroke-width="1.5"></path><path d="M1399.74 662.87L1399.74 662.87" stroke="hsl(228.5, 77.2%, 51.5%)" stroke-width="1.5"></path><path d="M1399.74 662.87L1582.87 669.07" stroke="hsl(228.5, 77.2%, 51.5%)" stroke-width="1.5"></path><path d="M1399.74 662.87L1261.94 511.39" stroke="hsl(228.5, 77.2%, 51.5%)" stroke-width="1.5"></path><path d="M1399.74 662.87L1439.48 400.19" stroke="hsl(228.5, 77.2%, 51.5%)" stroke-width="1.5"></path><path d="M1548.94 -99.29L1548.94 -99.29" stroke="hsl(228.5, 77.2%, 51.5%)" stroke-width="1.5"></path><path d="M1548.94 -99.29L1574.21 78.12" stroke="hsl(228.5, 77.2%, 51.5%)" stroke-width="1.5"></path><path d="M1548.94 -99.29L1406.02 58.37" stroke="hsl(228.5, 77.2%, 51.5%)" stroke-width="1.5"></path><path d="M1574.21 78.12L1574.21 78.12" stroke="hsl(228.5, 77.2%, 51.5%)" stroke-width="1.5"></path><path d="M1574.21 78.12L1583.19 231.55" stroke="hsl(228.5, 77.2%, 51.5%)" stroke-width="1.5"></path><path d="M1574.21 78.12L1406.02 58.37" stroke="hsl(228.5, 77.2%, 51.5%)" stroke-width="1.5"></path><path d="M1583.19 231.55L1583.19 231.55" stroke="hsl(228.5, 77.2%, 51.5%)" stroke-width="1.5"></path><path d="M1582.87 669.07L1582.87 669.07" stroke="hsl(228.5, 77.2%, 51.5%)" stroke-width="1.5"></path><path d="M1582.87 669.07L1398.61 555.18" stroke="hsl(228.5, 77.2%, 51.5%)" stroke-width="1.5"></path><path d="M1582.87 669.07L1300.86 670.96" stroke="hsl(228.5, 77.2%, 51.5%)" stroke-width="1.5"></path><path d="M1582.87 669.07L1439.48 400.19" stroke="hsl(228.5, 77.2%, 51.5%)" stroke-width="1.5"></path><path d="M1582.87 669.07L1581.13 357.77" stroke="hsl(228.5, 77.2%, 51.5%)" stroke-width="1.5"></path><circle r="25" cx="952.63" cy="342.21" fill="url(#SvgjsRadialGradient1049)"></circle><circle r="25" cx="1107.65" cy="243.92" fill="url(#SvgjsRadialGradient1049)"></circle><circle r="25" cx="1581.13" cy="357.77" fill="url(#SvgjsRadialGradient1049)"></circle><circle r="5" cx="-45.31" cy="505.25" fill="#8b9ad9"></circle><circle r="5" cx="-47.65" cy="675.69" fill="#8b9ad9"></circle><circle r="5" cx="104.93" cy="522.73" fill="#8b9ad9"></circle><circle r="5" cx="71.8" cy="700.75" fill="#8b9ad9"></circle><circle r="5" cx="219.45" cy="502.5" fill="#8b9ad9"></circle><circle r="5" cx="245.3" cy="682.74" fill="#8b9ad9"></circle><circle r="5" cx="360.97" cy="509.06" fill="#8b9ad9"></circle><circle r="5" cx="401.65" cy="640.14" fill="#8b9ad9"></circle><circle r="5" cx="541.57" cy="399.54" fill="#8b9ad9"></circle><circle r="5" cx="521.81" cy="531.83" fill="#8b9ad9"></circle><circle r="5" cx="554.46" cy="685.35" fill="#8b9ad9"></circle><circle r="5" cx="651.56" cy="405.6" fill="#8b9ad9"></circle><circle r="5" cx="666.85" cy="536.94" fill="#8b9ad9"></circle><circle r="5" cx="638.04" cy="703.72" fill="#8b9ad9"></circle><circle r="5" cx="805.46" cy="393.27" fill="#8b9ad9"></circle><circle r="5" cx="837.15" cy="554.11" fill="#8b9ad9"></circle><circle r="5" cx="838.72" cy="704.52" fill="#8b9ad9"></circle><circle r="5" cx="1006.73" cy="527.04" fill="#8b9ad9"></circle><circle r="5" cx="1003.37" cy="647.99" fill="#8b9ad9"></circle><circle r="5" cx="1160.71" cy="350.92" fill="#8b9ad9"></circle><circle r="5" cx="1098.85" cy="557.98" fill="#8b9ad9"></circle><circle r="5" cx="1135.59" cy="705.81" fill="#8b9ad9"></circle><circle r="5" cx="1307.77" cy="-68.79" fill="#8b9ad9"></circle><circle r="5" cx="1272.34" cy="83.08" fill="#8b9ad9"></circle><circle r="5" cx="1312.46" cy="213.96" fill="#8b9ad9"></circle><circle r="5" cx="1261.94" cy="511.39" fill="#8b9ad9"></circle><circle r="5" cx="1300.86" cy="670.96" fill="#8b9ad9"></circle><circle r="5" cx="1435.95" cy="-104.42" fill="#8b9ad9"></circle><circle r="5" cx="1406.02" cy="58.37" fill="#8b9ad9"></circle><circle r="5" cx="1398.02" cy="251.5" fill="#8b9ad9"></circle><circle r="5" cx="1439.48" cy="400.19" fill="#8b9ad9"></circle><circle r="5" cx="1398.61" cy="555.18" fill="#8b9ad9"></circle><circle r="5" cx="1399.74" cy="662.87" fill="#8b9ad9"></circle><circle r="5" cx="1548.94" cy="-99.29" fill="#8b9ad9"></circle><circle r="5" cx="1574.21" cy="78.12" fill="#8b9ad9"></circle><circle r="5" cx="1583.19" cy="231.55" fill="#8b9ad9"></circle><circle r="5" cx="1582.87" cy="669.07" fill="#8b9ad9"></circle></g><defs><mask id="SvgjsMask1048"><rect width="1440" height="560" fill="#ffffff"></rect></mask><radialGradient id="SvgjsRadialGradient1049"><stop stop-color="#ffffff" offset="0.1"></stop><stop stop-color="#1735b3" offset="0.2"></stop><stop stop-color="rgba(23, 53, 179, 0)" offset="1"></stop></radialGradient></defs></svg>